<?xml version="1.0" encoding="UTF-8"?>
<svg id="Layer_1" xmlns="http://www.w3.org/2000/svg" version="1.1" viewBox="0 0 500 500">
  <!-- Generator: Adobe Illustrator 29.5.1, SVG Export Plug-In . SVG Version: 2.1.0 Build 141)  -->
  <defs>
    <style>
      .st0 {
        fill: #17b97c;
      }
    </style>
  </defs>
  <path class="st0" d="M107.1,155.56c-3.77-4.46,2.75-16.55,7.14-19.75,12.67-9.25,22.55-1.11,33.6,5.53,33.89,20.34,66.31,43.59,99.91,64.44h4.28c34.03-21,66.79-44.42,100.98-65.12,10.85-6.57,19.48-13.54,32.01-5.19,4.39,2.93,11.83,15.21,7.92,19.89-.93,1.11-8.5,5.57-10.49,6.89-42.33,27.97-86.19,53.73-128.18,82.25l-4.4,1.64-142.76-90.59Z"/>
  <path class="st0" d="M139.88,307.1h31.31c.49,2.03-.39,1.43-1.1,1.99-17.86,14.03-42.47,24.28-60.89,38.19l-3.23.68v-173.9c11.93,5.99,23.01,14.53,33.91,22.17v110.86Z"/>
  <polygon class="st0" points="393.81 174.06 393.81 347.97 328.59 307.1 359.89 307.1 359.89 196.23 364.66 192.3 393.81 174.06"/>
  <path class="st0" d="M219.59,267.4c2.25-.08,4.98,1.12,6.98,2.15,18.76,14.32,47.18,24.85,64.91,39.44,7.84,6.45,6.46,13.59-1.37,19.19-15.78,11.28-40.26,24.72-57.6,34.58-6.18,3.52-11.04,7.96-18.07,4.13-3.73-2.03-4.64-4.88-5.02-8.89-2.43-25.83,1.84-55.47.09-81.71.72-4.66,5.46-8.73,10.08-8.88Z"/>
</svg>