<?xml version="1.0" encoding="UTF-8"?>
<svg id="Layer_1" xmlns="http://www.w3.org/2000/svg" version="1.1" viewBox="0 0 500 500">
  <!-- Generator: Adobe Illustrator 29.5.1, SVG Export Plug-In . SVG Version: 2.1.0 Build 141)  -->
  <defs>
    <style>
      .st0 {
        fill: #17b97c;
      }
    </style>
  </defs>
  <path class="st0" d="M47.01,114.92c-5.39-6.37,3.93-23.67,10.21-28.25,18.13-13.22,32.25-1.58,48.05,7.9,48.48,29.09,94.84,62.34,142.9,92.17h6.12c48.67-30.03,95.53-63.53,144.42-93.14,15.52-9.4,27.86-19.37,45.78-7.42,6.28,4.18,16.92,21.76,11.32,28.45-1.33,1.59-12.15,7.97-15.01,9.86-60.55,40.01-123.27,76.84-183.32,117.64l-6.29,2.35L47.01,114.92Z"/>
  <path class="st0" d="M93.91,331.66h44.78c.7,2.9-.56,2.05-1.57,2.85-25.54,20.06-60.75,34.72-87.09,54.63l-4.62.98v-248.73c17.06,8.57,32.91,20.79,48.51,31.71v158.56Z"/>
  <polygon class="st0" points="457.08 141.39 457.08 390.12 363.8 331.66 408.58 331.66 408.58 173.1 415.39 167.47 457.08 141.39"/>
  <path class="st0" d="M207.91,274.89c3.22-.11,7.13,1.6,9.99,3.07,26.83,20.48,67.47,35.54,92.83,56.41,11.21,9.22,9.24,19.44-1.96,27.45-22.56,16.13-57.58,35.36-82.38,49.45-8.84,5.03-15.79,11.39-25.84,5.91-5.34-2.91-6.64-6.98-7.18-12.72-3.47-36.94,2.63-79.34.13-116.87,1.03-6.66,7.81-12.48,14.42-12.71Z"/>
</svg>